<svg xmlns="http://www.w3.org/2000/svg" xmlns:svg="http://www.w3.org/2000/svg" xmlns:xlink="http://www.w3.org/1999/xlink" version="1.0" height="594.0000433921815pt" width="885.0000000298023pt" viewBox="130 382 893.0000000298023 600.0000433921815" ><defs><style type="text/css">
            @font-face {
                font-family: 'noto_regular';
                src: url('https://app.creately.com/diagram/assets/fonts/noto/noto-regular.woff') format('woff'),
                     url('https://app.creately.com/diagram/assets/fonts/noto/noto-regular.woff2') format('woff2');
                font-weight: normal;
                font-style: normal;
            }
        p {
            margin: 0;
        }
        </style></defs><defs><style>
            span{ display: inline-block; }
        </style></defs><g id="9npz5067g6"><g transform="translate(135 390)"><path d="M 58.66499923288822,17.08499978363514 C 58.6649991009175,29.08233821083781 71.65249883813175,36.58067487234356 82.04249875987387,30.58200577303222 C 86.86451461091987,27.79801369411706 89.83499886140633,22.6529840475498 89.8349988001585,17.08499978363514 C 89.83499893212922,5.08766135643247 76.84749919491497,-2.4106753050732745 66.45749927317286,3.587993794238061 C 61.63548342212685,6.371985873153217 58.664999171640396,11.517015519720479 58.66499923288822,17.08499978363514" fill="rgb(250, 250, 250)" stroke="rgb(235, 151, 78)" stroke-width="1.5" stroke-linecap="round" stroke-linejoin="round"/><path d="M 74.24999901652336,32.66999956727028 L 74.24999901652336,65.33999913454056 M 74.24999901652336,65.33999913454056 L 57.91499923288822,98.00999870181084 M 74.24999901652336,65.33999913454056 L 90.5849988001585,98.00999870181084 M 41.57999944925308,40.83749945908785 L 106.91999858379364,40.83749945908785" fill="rgb(250, 250, 250)" stroke="rgb(235, 151, 78)" stroke-width="1.5" stroke-linecap="round" stroke-linejoin="round"/><path d="M 74.24999901652336,134.00999870181084 L 74.24999901652336,589.5000433921814" fill="none" stroke="rgb(235, 151, 78)" stroke-width="1.5" stroke-linecap="round" stroke-linejoin="round" stroke-dasharray="10 7"/><path d="M 0.75,0.75 L 147.74999803304672,0.75" fill="rgb(0, 0, 0)" stroke="rgb(0, 0, 0)" stroke-width="0.5" stroke-linecap="round" stroke-linejoin="round" stroke-dasharray="10 7"/></g><g transform="translate(144.9965996622269, 498.0000079564611) rotate(0, 0, 0)" width="39" height="19"><text text-decoration="none" x="0" fill="#4b4b4b" font-size="11pt" font-family="Lato"  y="17">User&#160;</text><text text-decoration="none" x="36" fill="#4b4b4b" font-size="10pt" font-family="noto_regular"  y="17"></text></g></g><g id="ig1sngrgr0"><g transform="translate(205 555)"><path d="M 0.75,0.75 L 9.25,0.75 L 9.25,194.24881291389465 L 0.75,194.24881291389465 Z" fill="rgb(157, 224, 210)" stroke="rgb(129, 198, 183)" stroke-width="1.5" stroke-linecap="round" stroke-linejoin="round"/></g></g><g id="hpg4p35gfw"><g transform="translate(510 385)"><path d="M 0.75,0.75 L 120.00000002980232,0.75 L 120.00000002980232,39.5 L 0.75,39.5 Z" fill="rgb(250, 250, 250)" stroke="rgb(235, 151, 78)" stroke-width="1.5" stroke-linecap="round" stroke-linejoin="round"/><path d="M 60.00000001490116,38.75 L 60.00000001490116,590.0000388026237" fill="none" stroke="rgb(235, 151, 78)" stroke-width="1.5" stroke-linecap="round" stroke-linejoin="round" stroke-dasharray="10 7"/><path d="M 0.75,0.75 L 119.25000002980232,0.75" fill="rgb(0, 0, 0)" stroke="rgb(0, 0, 0)" stroke-width="0.5" stroke-linecap="round" stroke-linejoin="round" stroke-dasharray="10 7"/></g><g transform="translate(520.0000000024835, 395.0000006576716) rotate(0, 0, 0)" width="103" height="19"><text text-decoration="none" x="0" fill="#4b4b4b" font-size="11pt" font-family="Lato"  y="17">Login&#160;</text><text text-decoration="none" x="42" fill="#4b4b4b" font-size="11pt" font-family="Lato"  y="17">Screen&#160;</text><text text-decoration="none" x="92" fill="#4b4b4b" font-size="10pt" font-family="noto_regular"  y="17"></text></g></g><g id="2bvfp0qfk4"><g transform="translate(565 555)"><path d="M 0.75,0.75 L 9.25,0.75 L 9.25,64.25000678002834 L 0.75,64.25000678002834 Z" fill="rgb(157, 224, 210)" stroke="rgb(129, 198, 183)" stroke-width="1.5" stroke-linecap="round" stroke-linejoin="round"/></g></g><g id="267ylwayuo"><mask id="38e02" x="202" y="567" width="376" height="26" maskUnits="userSpaceOnUse"><rect x="202" y="567" width="376" height="26" fill="white" /><rect x="361.5" y="567.5" width="57" height="25" fill="black" /></mask><g mask="url(#38e02)"><path d="M 215,580 L 565,580" fill="none" stroke="#81c6b7" stroke-width="1.5" stroke-linecap="round" stroke-linejoin="round"/><path d="M 565,580 L 556.304347826087,574.25 L 556.304347826087,585.75 Z" fill="rgb(129,198,183)" stroke="#81c6b7" stroke-width="1.5" stroke-linecap="round" stroke-linejoin="round"/></g><g transform="translate(364.5, 570.5)" width="51" height="19"><text text-decoration="none" x="2.5" fill="rgb(75, 75, 75)" font-size="10pt" font-family="Lato"  y="17">1.&#160;</text><text text-decoration="none" x="15.5" fill="rgb(75, 75, 75)" font-size="10pt" font-family="Lato"  y="17">Login</text><text text-decoration="none" x="48.5" fill="#4b4b4b" font-size="10pt" font-family="noto_regular"  y="17"></text></g></g><g id="15xd0etcut"><g transform="translate(900 385)"><path d="M 0.75,0.75 L 120.00000002980232,0.75 L 120.00000002980232,37.5 L 0.75,37.5 Z" fill="rgb(250, 250, 250)" stroke="rgb(235, 151, 78)" stroke-width="1.5" stroke-linecap="round" stroke-linejoin="round"/><path d="M 60.00000001490116,36.75 L 60.00000001490116,590.0000388026237" fill="none" stroke="rgb(235, 151, 78)" stroke-width="1.5" stroke-linecap="round" stroke-linejoin="round" stroke-dasharray="10 7"/><path d="M 0.75,0.75 L 119.25000002980232,0.75" fill="rgb(0, 0, 0)" stroke="rgb(0, 0, 0)" stroke-width="0.5" stroke-linecap="round" stroke-linejoin="round" stroke-dasharray="10 7"/></g><g transform="translate(910.0000000024835, 395.0000006576716) rotate(0, 0, 0)" width="54" height="19"><text text-decoration="none" x="0" fill="#4b4b4b" font-size="11pt" font-family="Lato"  y="17">Server&#160;</text><text text-decoration="none" x="48" fill="#4b4b4b" font-size="10pt" font-family="noto_regular"  y="17"></text></g></g><g id="7my3ua93ym"><g transform="translate(955 555)"><path d="M 0.75,0.75 L 9.25,0.75 L 9.25,184.24952405691147 L 0.75,184.24952405691147 Z" fill="rgb(157, 224, 210)" stroke="rgb(129, 198, 183)" stroke-width="1.5" stroke-linecap="round" stroke-linejoin="round"/></g></g><g id="2lj7hahde6"><mask id="a0c65" x="562" y="587" width="406" height="26" maskUnits="userSpaceOnUse"><rect x="562" y="587" width="406" height="26" fill="white" /><rect x="712.9668874172186" y="587.5" width="94" height="25" fill="black" /></mask><g mask="url(#a0c65)"><path d="M 575,600 L 955,600" fill="none" stroke="#81c6b7" stroke-width="1.5" stroke-linecap="round" stroke-linejoin="round"/><path d="M 955,600 L 946.304347826087,594.25 L 946.304347826087,605.75 Z" fill="rgb(129,198,183)" stroke="#81c6b7" stroke-width="1.5" stroke-linecap="round" stroke-linejoin="round"/></g><g transform="translate(715.9668874172186, 590.5)" width="88" height="19"><text text-decoration="none" x="5" fill="rgb(75, 75, 75)" font-size="10pt" font-family="Lato"  y="17">2.&#160;</text><text text-decoration="none" x="18" fill="rgb(75, 75, 75)" font-size="10pt" font-family="Lato"  y="17">Check&#160;</text><text text-decoration="none" x="57" fill="rgb(75, 75, 75)" font-size="10pt" font-family="Lato"  y="17">user</text><text text-decoration="none" x="83" fill="#4b4b4b" font-size="10pt" font-family="noto_regular"  y="17"></text></g></g><g id="axzfxyuz6r"><g transform="translate(565 640)"><path d="M 0.75,0.75 L 9.25000111758709,0.75 L 9.25000111758709,99.25001728534698 L 0.75,99.25001728534698 Z" fill="rgb(157, 224, 210)" stroke="rgb(129, 198, 183)" stroke-width="1.5" stroke-linecap="round" stroke-linejoin="round"/></g></g><g id="1uh9uf239j"><mask id="ee3cd" x="562" y="687" width="406" height="31" maskUnits="userSpaceOnUse"><rect x="562" y="687" width="406" height="31" fill="white" /><rect x="736.3065375732813" y="687.5" width="74" height="25" fill="black" /></mask><g mask="url(#ee3cd)"><path d="M 955,700 L 765,700 L 765,702.5 L 765,705 L 575,705" fill="none" stroke="#81c6b7" stroke-width="1.5" stroke-linecap="round" stroke-linejoin="round" stroke-dasharray="5 5"/><path d="M 575,705 L 581.9565217391304,711.4971751412429 M 575,705 L 581.9565217391304,698.5028248587571 Z" fill="rgb(255,255,255)" stroke="#81c6b7" stroke-width="1.5" stroke-linecap="round" stroke-linejoin="round"/></g><g transform="translate(739.3065375732813, 690.5)" width="68" height="19"><text text-decoration="none" x="4" fill="rgb(75, 75, 75)" font-size="10pt" font-family="Lato"  y="17">3.2&#160;</text><text text-decoration="none" x="24" fill="rgb(75, 75, 75)" font-size="10pt" font-family="Lato"  y="17">Invalid</text><text text-decoration="none" x="64" fill="#4b4b4b" font-size="10pt" font-family="noto_regular"  y="17"></text></g></g><g id="1qsf3682d7"><mask id="8a8ae" x="562" y="627" width="406" height="31" maskUnits="userSpaceOnUse"><rect x="562" y="627" width="406" height="31" fill="white" /><rect x="735.1990776325904" y="627.5" width="62" height="25" fill="black" /></mask><g mask="url(#8a8ae)"><path d="M 955,640 L 765,640 L 765,642.5 L 765,645 L 575,645" fill="none" stroke="#81c6b7" stroke-width="1.5" stroke-linecap="round" stroke-linejoin="round" stroke-dasharray="5 5"/><path d="M 575,645 L 581.9565217391304,651.4971751412429 M 575,645 L 581.9565217391304,638.5028248587571 Z" fill="rgb(255,255,255)" stroke="#81c6b7" stroke-width="1.5" stroke-linecap="round" stroke-linejoin="round"/></g><g transform="translate(738.1990776325904, 630.5)" width="56" height="19"><text text-decoration="none" x="3.5" fill="rgb(75, 75, 75)" font-size="10pt" font-family="Lato"  y="17">3.1&#160;</text><text text-decoration="none" x="23.5" fill="rgb(75, 75, 75)" font-size="10pt" font-family="Lato"  y="17">Valid</text><text text-decoration="none" x="52.5" fill="#4b4b4b" font-size="10pt" font-family="noto_regular"  y="17"></text></g></g><g id="666t6nyw3p"><mask id="4bdfe" x="202" y="707" width="376" height="31" maskUnits="userSpaceOnUse"><rect x="202" y="707" width="376" height="31" fill="white" /><rect x="320.8059360730594" y="707.5" width="98" height="25" fill="black" /></mask><g mask="url(#4bdfe)"><path d="M 565,725 L 390,725 L 390,722.5 L 390,720 L 215,720" fill="none" stroke="#81c6b7" stroke-width="1.5" stroke-linecap="round" stroke-linejoin="round" stroke-dasharray="5 5"/><path d="M 215,720 L 221.95652173913044,726.4971751412429 M 215,720 L 221.95652173913044,713.5028248587571 Z" fill="rgb(255,255,255)" stroke="#81c6b7" stroke-width="1.5" stroke-linecap="round" stroke-linejoin="round"/></g><g transform="translate(323.8059360730594, 710.5)" width="92" height="19"><text text-decoration="none" x="5.5" fill="rgb(75, 75, 75)" font-size="10pt" font-family="Lato"  y="17">5.&#160;</text><text text-decoration="none" x="18.5" fill="rgb(75, 75, 75)" font-size="10pt" font-family="Lato"  y="17">Login&#160;</text><text text-decoration="none" x="54.5" fill="rgb(75, 75, 75)" font-size="10pt" font-family="Lato"  y="17">failed</text><text text-decoration="none" x="86.5" fill="#4b4b4b" font-size="10pt" font-family="noto_regular"  y="17"></text></g></g><g id="wbuamprk9v"><mask id="be1be" x="202" y="647" width="376" height="31" maskUnits="userSpaceOnUse"><rect x="202" y="647" width="376" height="31" fill="white" /><rect x="325.5" y="650" width="129" height="25" fill="black" /></mask><g mask="url(#be1be)"><path d="M 565,665 L 390,665 L 390,662.5 L 390,660 L 215,660" fill="none" stroke="#81c6b7" stroke-width="1.5" stroke-linecap="round" stroke-linejoin="round" stroke-dasharray="5 5"/><path d="M 215,660 L 221.95652173913044,666.4971751412429 M 215,660 L 221.95652173913044,653.5028248587571 Z" fill="rgb(255,255,255)" stroke="#81c6b7" stroke-width="1.5" stroke-linecap="round" stroke-linejoin="round"/></g><g transform="translate(328.5, 653)" width="123" height="19"><text text-decoration="none" x="7" fill="rgb(75, 75, 75)" font-size="10pt" font-family="Lato"  y="17">4.&#160;</text><text text-decoration="none" x="20" fill="rgb(75, 75, 75)" font-size="10pt" font-family="Lato"  y="17">Login&#160;</text><text text-decoration="none" x="56" fill="rgb(75, 75, 75)" font-size="10pt" font-family="Lato"  y="17">successful</text><text text-decoration="none" x="116" fill="#4b4b4b" font-size="10pt" font-family="noto_regular"  y="17"></text></g></g><g id="1fw1uw30pv"><g transform="translate(565 780)"><path d="M 0.75,0.75 L 9.25,0.75 L 9.25,119.2500029206276 L 0.75,119.2500029206276 Z" fill="rgb(157, 224, 210)" stroke="rgb(129, 198, 183)" stroke-width="1.5" stroke-linecap="round" stroke-linejoin="round"/></g></g><g id="550u44ljy2"><g transform="translate(955.05 775)"><path d="M 0.75,0.75 L 9.25,0.75 L 9.25,134.24964907765388 L 0.75,134.24964907765388 Z" fill="rgb(157, 224, 210)" stroke="rgb(129, 198, 183)" stroke-width="1.5" stroke-linecap="round" stroke-linejoin="round"/></g></g><g id="1gj6iw2d1p"><g transform="translate(205 780)"><path d="M 0.75,0.75 L 9.25,0.75 L 9.25,134.249176800251 L 0.75,134.249176800251 Z" fill="rgb(157, 224, 210)" stroke="rgb(129, 198, 183)" stroke-width="1.5" stroke-linecap="round" stroke-linejoin="round"/></g></g><g id="4u0c5lktwq"><mask id="76450" x="202" y="792" width="376" height="26" maskUnits="userSpaceOnUse"><rect x="202" y="792" width="376" height="26" fill="white" /><rect x="352.5" y="792.5" width="75" height="25" fill="black" /></mask><g mask="url(#76450)"><path d="M 215,805 L 565,805" fill="none" stroke="#81c6b7" stroke-width="1.5" stroke-linecap="round" stroke-linejoin="round"/><path d="M 565,805 L 556.304347826087,799.25 L 556.304347826087,810.75 Z" fill="rgb(129,198,183)" stroke="#81c6b7" stroke-width="1.5" stroke-linecap="round" stroke-linejoin="round"/></g><g transform="translate(355.5, 795.5)" width="69" height="19"><text text-decoration="none" x="4" fill="rgb(75, 75, 75)" font-size="10pt" font-family="Lato"  y="17">6.&#160;</text><text text-decoration="none" x="17" fill="rgb(75, 75, 75)" font-size="10pt" font-family="Lato"  y="17">Register</text><text text-decoration="none" x="65" fill="#4b4b4b" font-size="10pt" font-family="noto_regular"  y="17"></text></g></g><g id="16ggr1bi1f"><mask id="320a6" x="562" y="807" width="406.04999999999995" height="31" maskUnits="userSpaceOnUse"><rect x="562" y="807" width="406.04999999999995" height="31" fill="white" /><rect x="678.9395395619132" y="812.5" width="114" height="25" fill="black" /></mask><g mask="url(#320a6)"><path d="M 575,825 L 765.025,825 L 765.025,822.5 L 765.025,820 L 955.05,820" fill="none" stroke="#81c6b7" stroke-width="1.5" stroke-linecap="round" stroke-linejoin="round"/><path d="M 955.05,820 L 946.354347826087,814.25 L 946.354347826087,825.75 Z" fill="rgb(129,198,183)" stroke="#81c6b7" stroke-width="1.5" stroke-linecap="round" stroke-linejoin="round"/></g><g transform="translate(681.9395395619132, 815.5)" width="108" height="19"><text text-decoration="none" x="6.5" fill="rgb(75, 75, 75)" font-size="10pt" font-family="Lato"  y="17">7.&#160;</text><text text-decoration="none" x="19.5" fill="rgb(75, 75, 75)" font-size="10pt" font-family="Lato"  y="17">Verify&#160;</text><text text-decoration="none" x="56.5" fill="rgb(75, 75, 75)" font-size="10pt" font-family="Lato"  y="17">register</text><text text-decoration="none" x="101.5" fill="#4b4b4b" font-size="10pt" font-family="noto_regular"  y="17"></text></g></g><g id="1nk03jdqh0"><mask id="6e612" x="562" y="847" width="406.04999999999995" height="31" maskUnits="userSpaceOnUse"><rect x="562" y="847" width="406.04999999999995" height="31" fill="white" /><rect x="720.3488146754469" y="852.5" width="54" height="25" fill="black" /></mask><g mask="url(#6e612)"><path d="M 955.05,860 L 765.025,860 L 765.025,862.5 L 765.025,865 L 575,865" fill="none" stroke="#81c6b7" stroke-width="1.5" stroke-linecap="round" stroke-linejoin="round" stroke-dasharray="5 5"/><path d="M 575,865 L 581.9565217391304,871.4971751412429 M 575,865 L 581.9565217391304,858.5028248587571 Z" fill="rgb(255,255,255)" stroke="#81c6b7" stroke-width="1.5" stroke-linecap="round" stroke-linejoin="round"/></g><g transform="translate(723.3488146754469, 855.5)" width="48" height="19"><text text-decoration="none" x="3" fill="rgb(75, 75, 75)" font-size="10pt" font-family="Lato"  y="17">8.&#160;</text><text text-decoration="none" x="16" fill="rgb(75, 75, 75)" font-size="10pt" font-family="Lato"  y="17">Valid</text><text text-decoration="none" x="45" fill="#4b4b4b" font-size="10pt" font-family="noto_regular"  y="17"></text></g></g><g id="1u3d9mz8dm"><mask id="78f63" x="202" y="872" width="376" height="26" maskUnits="userSpaceOnUse"><rect x="202" y="872" width="376" height="26" fill="white" /><rect x="312" y="872.5" width="156" height="25" fill="black" /></mask><g mask="url(#78f63)"><path d="M 565,885 L 215,885" fill="none" stroke="#81c6b7" stroke-width="1.5" stroke-linecap="round" stroke-linejoin="round" stroke-dasharray="5 5"/><path d="M 215,885 L 221.95652173913044,891.4971751412429 M 215,885 L 221.95652173913044,878.5028248587571 Z" fill="rgb(255,255,255)" stroke="#81c6b7" stroke-width="1.5" stroke-linecap="round" stroke-linejoin="round"/></g><g transform="translate(315, 875.5)" width="150" height="19"><text text-decoration="none" x="9" fill="rgb(75, 75, 75)" font-size="10pt" font-family="Lato"  y="17">9.&#160;</text><text text-decoration="none" x="22" fill="rgb(75, 75, 75)" font-size="10pt" font-family="Lato"  y="17">Successfully&#160;</text><text text-decoration="none" x="96" fill="rgb(75, 75, 75)" font-size="10pt" font-family="Lato"  y="17">created</text><text text-decoration="none" x="141" fill="#4b4b4b" font-size="10pt" font-family="noto_regular"  y="17"></text></g></g></svg>